<?xml version="1.0" standalone="no"?><!DOCTYPE svg PUBLIC "-//W3C//DTD SVG 1.1//EN" "http://www.w3.org/Graphics/SVG/1.1/DTD/svg11.dtd"><svg t="1768810435762" class="icon" viewBox="0 0 1024 1024" version="1.1" xmlns="http://www.w3.org/2000/svg" p-id="6247" xmlns:xlink="http://www.w3.org/1999/xlink" width="200" height="200"><path d="M512.000021 136.420004c-207.445528 0-375.579996 168.134468-375.579996 375.579996s168.134468 375.579996 375.579996 375.579996 375.579996-168.134468 375.579996-375.579996S719.392426 136.420004 512.000021 136.420004zM594.978232 371.808259c0-23.108529 18.699315-41.754721 41.754721-41.754721s41.754721 18.699315 41.754721 41.754721l0 55.726084c0 23.055406-18.699315 41.754721-41.754721 41.754721s-41.754721-18.699315-41.754721-41.754721L594.978232 371.808259zM344.290538 371.808259c0-23.108529 18.699315-41.754721 41.754721-41.754721 23.108529 0 41.754721 18.699315 41.754721 41.754721l0 55.726084c0 23.055406-18.699315 41.754721-41.754721 41.754721-23.108529 0-41.754721-18.699315-41.754721-41.754721L344.290538 371.808259zM705.314817 686.509234c-12.112056 9.509027-29.589541 7.384105-39.098568-4.781075-37.239261-47.598257-93.230961-74.903507-153.631874-74.903507-61.03839 0-117.401951 27.783358-154.641212 76.17846-9.402781 12.218303-26.827143 14.502594-39.045445 5.152936-12.218303-9.402781-14.502594-26.880266-5.152936-39.045445 47.863872-62.313343 120.323719-97.958913 198.78647-97.958913 77.612783 0 149.647645 35.061216 197.511517 96.312098C719.551795 659.575846 717.426873 677.053331 705.314817 686.509234z" p-id="6248"></path></svg>